<?xml version="1.0" encoding="utf-8"?>
<!-- Generator: Adobe Illustrator 22.1.0, SVG Export Plug-In . SVG Version: 6.00 Build 0)  -->
<svg version="1.1" id="Шар_1" xmlns="http://www.w3.org/2000/svg" xmlns:xlink="http://www.w3.org/1999/xlink" x="0px" y="0px"
	 viewBox="0 0 192 150" style="enable-background:new 0 0 192 150;" xml:space="preserve">
<style type="text/css">
	.st0{opacity:0.3;fill:#333333;enable-background:new    ;}
	.st1{fill:none;stroke:#FFFFFF;stroke-width:4;stroke-linejoin:round;stroke-miterlimit:10;}
	.st2{fill:#FFFFFF;}
</style>
<path id="Daily_button" class="st0" d="M180,150H12c-6.6,0-12-5.4-12-12V12C0,5.4,5.4,0,12,0h168c6.6,0,12,5.4,12,12v126
	C192,144.5,186.6,150,180,150z"/>
<g id="Daily_3_">
	<g id="Daily_icon_2_">
		<g>
			<line class="st1" x1="115.3" y1="32.1" x2="77.1" y2="32.1"/>
			<path class="st1" d="M122.9,32.1h9.8c0.5,0,1,0.4,1,1v15.7V93c0,0.6-0.5,1-1,1H59.3c-0.5,0-1-0.4-1-1V48.8V33.1c0-0.6,0.5-1,1-1
				h10.3"/>
			<line class="st1" x1="58.3" y1="48.8" x2="133.6" y2="48.8"/>
			<path class="st1" d="M120.9,40.2h-3.5c-1.1,0-2-0.9-2-2V26c0-1.1,0.9-2,2-2h3.5c1.1,0,2,0.9,2,2v12.2
				C122.9,39.3,122,40.2,120.9,40.2z"/>
			<path class="st1" d="M75.1,40.2h-3.5c-1.1,0-2-0.9-2-2V26c0-1.1,0.9-2,2-2h3.5c1.1,0,2,0.9,2,2v12.2
				C77.1,39.3,76.2,40.2,75.1,40.2z"/>
		</g>
		<g>
			<line class="st1" x1="65.5" y1="66.6" x2="126.4" y2="66.6"/>
			<line class="st1" x1="65.5" y1="76.8" x2="126.4" y2="76.8"/>
			<line class="st1" x1="74.6" y1="56.9" x2="74.6" y2="86.9"/>
			<line class="st1" x1="91.8" y1="56.9" x2="91.8" y2="86.9"/>
			<line class="st1" x1="83.2" y1="56.9" x2="83.2" y2="86.9"/>
			<line class="st1" x1="100.5" y1="56.9" x2="100.5" y2="86.9"/>
			<line class="st1" x1="109.1" y1="56.9" x2="109.1" y2="86.9"/>
			<line class="st1" x1="117.7" y1="56.9" x2="117.7" y2="86.9"/>
			<rect x="65.5" y="56.9" class="st1" width="60.8" height="30"/>
		</g>
	</g>
	<g id="Daily_txt_4_">
		<g id="Daily_txt_3_">
			<path class="st2" d="M71.6,121.8v-14.7h6c1.6,0,2.9,0.3,4.1,0.9c1.2,0.6,2.1,1.5,2.8,2.6s1,2.4,1,3.8s-0.3,2.7-1,3.8
				c-0.7,1.1-1.6,2-2.8,2.6s-2.6,0.9-4.1,0.9L71.6,121.8L71.6,121.8z M73.1,120.5h4.3c1.3,0,2.4-0.3,3.4-0.8s1.7-1.2,2.2-2.1
				s0.8-1.9,0.8-3.1s-0.3-2.2-0.8-3.1s-1.3-1.6-2.2-2.1c-1-0.5-2.1-0.8-3.4-0.8h-4.3V120.5z"/>
			<path class="st2" d="M91.7,122c-0.8,0-1.5-0.1-2.2-0.4c-0.6-0.3-1.1-0.7-1.4-1.1c-0.3-0.5-0.5-1-0.5-1.7c0-0.6,0.1-1.1,0.4-1.6
				c0.3-0.5,0.7-0.8,1.3-1.1c0.6-0.3,1.5-0.4,2.5-0.4h3.8v1.1h-3.8c-1.1,0-1.8,0.2-2.2,0.6s-0.6,0.8-0.6,1.4s0.2,1.1,0.7,1.5
				s1.2,0.6,2.1,0.6c0.8,0,1.6-0.2,2.2-0.6s1.1-0.9,1.3-1.7l0.3,1c-0.3,0.7-0.8,1.3-1.5,1.7S92.8,122,91.7,122z M95.5,121.8v-2.4
				l-0.1-0.4v-4.1c0-0.9-0.3-1.7-0.8-2.2s-1.3-0.8-2.3-0.8c-0.7,0-1.4,0.1-2,0.4c-0.6,0.2-1.2,0.6-1.6,0.9l-0.7-1.1
				c0.6-0.5,1.2-0.8,2-1.1s1.6-0.4,2.5-0.4c1.4,0,2.5,0.4,3.3,1.1s1.2,1.8,1.2,3.2v6.8L95.5,121.8L95.5,121.8z"/>
			<path class="st2" d="M101.8,108.4c-0.3,0-0.6-0.1-0.8-0.3s-0.3-0.5-0.3-0.8s0.1-0.5,0.3-0.7s0.5-0.3,0.8-0.3s0.6,0.1,0.8,0.3
				s0.3,0.4,0.3,0.7c0,0.3-0.1,0.6-0.3,0.8S102.1,108.4,101.8,108.4z M101,121.8v-11h1.5v11H101z"/>
			<path class="st2" d="M106.7,121.8v-15.5h1.5v15.6L106.7,121.8L106.7,121.8z"/>
			<path class="st2" d="M112.4,126c-0.5,0-1-0.1-1.5-0.3c-0.5-0.2-0.9-0.4-1.2-0.8l0.7-1.1c0.3,0.3,0.6,0.5,0.9,0.6
				c0.3,0.1,0.7,0.2,1.1,0.2c0.5,0,0.9-0.1,1.3-0.4c0.4-0.3,0.7-0.8,1-1.4l0.7-1.6l0.2-0.2l4.5-10.2h1.5l-5.5,12.3
				c-0.3,0.7-0.6,1.3-1,1.7c-0.4,0.4-0.8,0.7-1.2,0.9C113.4,125.9,112.9,126,112.4,126z M115.3,122.2l-5.1-11.3h1.6l4.5,10.1
				L115.3,122.2z"/>
		</g>
	</g>
</g>
</svg>
