<?xml version="1.0" encoding="utf-8"?>
<!-- Generator: Adobe Illustrator 22.1.0, SVG Export Plug-In . SVG Version: 6.00 Build 0)  -->
<svg version="1.1" id="Шар_1" xmlns="http://www.w3.org/2000/svg" xmlns:xlink="http://www.w3.org/1999/xlink" x="0px" y="0px"
	 viewBox="0 0 192 150" style="enable-background:new 0 0 192 150;" xml:space="preserve">
<style type="text/css">
	.st0{opacity:0.3;fill:#333333;enable-background:new    ;}
	.st1{fill:#FFFFFF;}
	.st2{fill:none;stroke:#FFFFFF;stroke-width:4;stroke-linecap:round;stroke-miterlimit:10;}
	.st3{fill:none;stroke:#FFFFFF;stroke-width:4;stroke-linejoin:round;stroke-miterlimit:10;}
	.st4{fill:none;stroke:#FFFFFF;stroke-width:4;stroke-miterlimit:10;}
	.st5{fill:none;stroke:#FFFFFF;stroke-width:2;stroke-linecap:round;stroke-miterlimit:10;}
	.st6{font-family:'Calibri-Bold';}
	.st7{font-size:24px;}
</style>
<path id="Donate_button" class="st0" d="M180,150H12c-6.6,0-12-5.4-12-12V12C0,5.4,5.4,0,12,0h168c6.6,0,12,5.4,12,12v126
	C192,144.6,186.6,150,180,150z"/>
<g id="Donate_3_">
	<g id="Donate_txt_4_">
		<g id="Donate_txt_3_">
			<path class="st1" d="M58.5,123.5v-14.7h6c1.6,0,2.9,0.3,4.1,0.9s2.1,1.5,2.8,2.6c0.7,1.1,1,2.4,1,3.8s-0.3,2.7-1,3.8
				c-0.7,1.1-1.6,2-2.8,2.6s-2.6,0.9-4.1,0.9L58.5,123.5L58.5,123.5z M60,122.2h4.3c1.3,0,2.4-0.3,3.4-0.8s1.7-1.2,2.2-2.1
				s0.8-1.9,0.8-3.1s-0.3-2.2-0.8-3.1s-1.3-1.6-2.2-2.1c-1-0.5-2.1-0.8-3.4-0.8H60V122.2z"/>
			<path class="st1" d="M80,123.7c-1.1,0-2-0.2-2.9-0.7c-0.8-0.5-1.5-1.2-2-2c-0.5-0.9-0.7-1.8-0.7-2.9s0.2-2.1,0.7-2.9s1.2-1.5,2-2
				s1.8-0.7,2.9-0.7s2.1,0.2,2.9,0.7s1.5,1.1,2,2s0.7,1.8,0.7,2.9s-0.2,2.1-0.7,2.9s-1.2,1.5-2,2C82.1,123.4,81.1,123.7,80,123.7z
				 M80,122.3c0.8,0,1.5-0.2,2.1-0.5c0.6-0.4,1.1-0.9,1.5-1.5c0.4-0.7,0.5-1.4,0.5-2.3s-0.2-1.6-0.5-2.3c-0.4-0.6-0.8-1.1-1.5-1.5
				c-0.6-0.4-1.3-0.5-2.1-0.5c-0.8,0-1.5,0.2-2.1,0.5c-0.6,0.4-1.1,0.9-1.5,1.5s-0.5,1.4-0.5,2.3s0.2,1.6,0.5,2.3
				c0.4,0.7,0.9,1.2,1.5,1.5C78.5,122.2,79.2,122.3,80,122.3z"/>
			<path class="st1" d="M94.3,112.4c0.9,0,1.7,0.2,2.4,0.5s1.2,0.9,1.6,1.6s0.6,1.6,0.6,2.6v6.4h-1.5v-6.3c0-1.2-0.3-2-0.9-2.6
				s-1.4-0.9-2.4-0.9c-0.8,0-1.5,0.2-2,0.5c-0.6,0.3-1,0.8-1.3,1.4s-0.5,1.3-0.5,2.2v5.8h-1.5v-11h1.4v3L90,115
				c0.4-0.8,0.9-1.4,1.7-1.9C92.3,112.6,93.2,112.4,94.3,112.4z"/>
			<path class="st1" d="M106,123.7c-0.8,0-1.5-0.1-2.2-0.4c-0.6-0.3-1.1-0.7-1.4-1.1c-0.3-0.5-0.5-1-0.5-1.7c0-0.6,0.1-1.1,0.4-1.6
				s0.7-0.8,1.3-1.1c0.6-0.3,1.5-0.4,2.5-0.4h3.8v1.1H106c-1.1,0-1.8,0.2-2.2,0.6c-0.4,0.4-0.6,0.8-0.6,1.4s0.2,1.1,0.7,1.5
				s1.2,0.6,2.1,0.6c0.8,0,1.6-0.2,2.2-0.6s1.1-0.9,1.3-1.7l0.3,1c-0.3,0.7-0.8,1.3-1.5,1.7C107.9,123.4,107,123.7,106,123.7z
				 M109.8,123.5v-2.4l-0.1-0.4v-4.1c0-0.9-0.3-1.7-0.8-2.2s-1.3-0.8-2.3-0.8c-0.7,0-1.4,0.1-2,0.4s-1.2,0.6-1.6,0.9l-0.7-1.1
				c0.6-0.5,1.2-0.8,2-1.1s1.6-0.4,2.5-0.4c1.4,0,2.5,0.4,3.3,1.1s1.2,1.8,1.2,3.2v6.8L109.8,123.5L109.8,123.5z"/>
			<path class="st1" d="M113.5,113.8v-1.2h6.8v1.2H113.5z M118.8,123.7c-1,0-1.8-0.3-2.4-0.8c-0.6-0.6-0.8-1.4-0.8-2.4v-10.4h1.5
				v10.3c0,0.6,0.2,1.1,0.5,1.5s0.8,0.5,1.4,0.5c0.7,0,1.2-0.2,1.6-0.6l0.5,1.1c-0.3,0.3-0.6,0.5-1.1,0.6
				C119.6,123.6,119.2,123.7,118.8,123.7z"/>
			<path class="st1" d="M128.5,123.7c-1.1,0-2.2-0.2-3-0.7c-0.9-0.5-1.5-1.1-2-2c-0.5-0.8-0.7-1.8-0.7-2.9s0.2-2.1,0.7-2.9
				s1.1-1.5,1.9-2s1.7-0.7,2.8-0.7c1,0,2,0.2,2.8,0.7s1.4,1.1,1.9,2c0.5,0.8,0.7,1.8,0.7,2.9c0,0.1,0,0.1,0,0.2s0,0.2,0,0.2h-9.6
				v-1.1h8.8l-0.6,0.4c0-0.8-0.2-1.5-0.5-2.1s-0.8-1.1-1.4-1.5c-0.6-0.3-1.3-0.5-2-0.5c-0.8,0-1.4,0.2-2,0.5
				c-0.6,0.4-1.1,0.8-1.4,1.5c-0.3,0.6-0.5,1.4-0.5,2.2v0.2c0,0.8,0.2,1.6,0.6,2.2s0.9,1.1,1.6,1.5s1.4,0.5,2.3,0.5
				c0.7,0,1.3-0.1,1.9-0.4c0.6-0.2,1.1-0.6,1.5-1.1l0.8,1c-0.5,0.6-1.1,1-1.8,1.3C130.2,123.5,129.4,123.7,128.5,123.7z"/>
		</g>
	</g>
	<g id="Donate_pic_2_">
		<line class="st2" x1="89.1" y1="47.3" x2="82.4" y2="47.3"/>
		<line class="st2" x1="109.2" y1="47.3" x2="101.7" y2="47.3"/>
		<rect x="62.2" y="65.7" class="st3" width="67.1" height="30.6"/>
		<rect x="62.2" y="56.7" class="st3" width="67.1" height="9"/>
		<path class="st3" d="M62.2,56.7l6.5-16.1h16 M107.2,40.6h15.6l6.5,16.1"/>
		<path class="st4" d="M107.5,37.9c0,0.9-0.1,1.9-0.3,2.7c-0.7,2.7-2.3,5.1-4.5,6.7H89.1c-2.2-1.6-3.8-3.9-4.5-6.7
			c-0.2-0.9-0.3-1.8-0.3-2.7c0-6.4,5.2-11.6,11.6-11.6C102.3,26.3,107.5,31.5,107.5,37.9z"/>
		<g>
			<line class="st5" x1="89.4" y1="78.9" x2="100.6" y2="78.9"/>
			<line class="st5" x1="89.4" y1="81.9" x2="100.6" y2="81.9"/>
			<text transform="matrix(-1 0 0 1 101.0635 87.8733)" class="st1 st6 st7">S</text>
		</g>
	</g>
</g>
</svg>
