<?xml version="1.0" encoding="utf-8"?>
<!-- Generator: Adobe Illustrator 22.1.0, SVG Export Plug-In . SVG Version: 6.00 Build 0)  -->
<svg version="1.1" id="Шар_1" xmlns="http://www.w3.org/2000/svg" xmlns:xlink="http://www.w3.org/1999/xlink" x="0px" y="0px"
	 viewBox="0 0 192 150" style="enable-background:new 0 0 192 150;" xml:space="preserve">
<style type="text/css">
	.st0{opacity:0.3;fill:#333333;enable-background:new    ;}
	.st1{fill:#FFFFFF;}
	.st2{fill:none;stroke:#FFFFFF;stroke-width:4;stroke-miterlimit:10;}
	.st3{fill:none;stroke:#FFFFFF;stroke-width:4;stroke-linejoin:round;stroke-miterlimit:10;}
</style>
<path id="Friends_button" class="st0" d="M180,150H12c-6.6,0-12-5.4-12-12V12C0,5.4,5.4,0,12,0h168c6.6,0,12,5.4,12,12v126
	C192,144.6,186.6,150,180,150z"/>
<g id="Friends_3_">
	<g id="Friends_txt_4_">
		<g id="Friends_txt_3_">
			<path class="st1" d="M60.2,123.5h-1.6v-14.7h10.1v1.3h-8.5V123.5z M60,116h7.8v1.3H60V116z"/>
			<path class="st1" d="M71.6,123.5v-11H73v3l-0.1-0.5c0.3-0.8,0.8-1.5,1.6-1.9c0.7-0.4,1.6-0.7,2.7-0.7v1.4c-0.1,0-0.1,0-0.2,0
				c-0.1,0-0.1,0-0.2,0c-1.2,0-2.1,0.4-2.7,1.1c-0.7,0.7-1,1.7-1,3v5.6H71.6z"/>
			<path class="st1" d="M80.8,110.1c-0.3,0-0.6-0.1-0.8-0.3s-0.3-0.5-0.3-0.8s0.1-0.5,0.3-0.7s0.5-0.3,0.8-0.3s0.6,0.1,0.8,0.3
				s0.3,0.4,0.3,0.7c0,0.3-0.1,0.6-0.3,0.8S81.1,110.1,80.8,110.1z M80,123.5v-11h1.5v11H80z"/>
			<path class="st1" d="M90.3,123.7c-1.1,0-2.2-0.2-3-0.7c-0.9-0.5-1.5-1.1-2-2c-0.5-0.8-0.7-1.8-0.7-2.9s0.2-2.1,0.7-2.9
				s1.1-1.5,1.9-2c0.8-0.5,1.7-0.7,2.8-0.7c1,0,2,0.2,2.8,0.7s1.4,1.1,1.9,2c0.5,0.8,0.7,1.8,0.7,2.9c0,0.1,0,0.1,0,0.2s0,0.2,0,0.2
				h-9.6v-1.1h8.8l-0.6,0.4c0-0.8-0.2-1.5-0.5-2.1s-0.8-1.1-1.4-1.5c-0.6-0.3-1.3-0.5-2-0.5c-0.8,0-1.4,0.2-2,0.5
				c-0.6,0.4-1.1,0.8-1.4,1.5c-0.3,0.6-0.5,1.4-0.5,2.2v0.2c0,0.8,0.2,1.6,0.6,2.2c0.4,0.6,0.9,1.1,1.6,1.5c0.7,0.4,1.4,0.5,2.3,0.5
				c0.7,0,1.3-0.1,1.9-0.4c0.6-0.2,1.1-0.6,1.5-1.1l0.8,1c-0.5,0.6-1.1,1-1.8,1.3C92,123.5,91.2,123.7,90.3,123.7z"/>
			<path class="st1" d="M104,112.5c0.9,0,1.7,0.2,2.4,0.5s1.2,0.9,1.6,1.6c0.4,0.7,0.6,1.6,0.6,2.6v6.4h-1.5v-6.3
				c0-1.2-0.3-2-0.9-2.6c-0.6-0.6-1.4-0.9-2.4-0.9c-0.8,0-1.5,0.2-2,0.5s-1,0.8-1.3,1.4s-0.5,1.3-0.5,2.2v5.8h-1.6v-11h1.4v3
				l-0.2-0.6c0.3-0.8,0.9-1.4,1.7-1.9S102.9,112.5,104,112.5z"/>
			<path class="st1" d="M116.9,123.7c-1,0-2-0.2-2.8-0.7s-1.5-1.1-2-2c-0.5-0.8-0.7-1.8-0.7-2.9s0.2-2.1,0.7-2.9s1.1-1.5,2-2
				c0.8-0.5,1.8-0.7,2.8-0.7s1.8,0.2,2.6,0.7c0.8,0.4,1.4,1.1,1.8,1.9c0.5,0.8,0.7,1.9,0.7,3.1s-0.2,2.2-0.7,3
				c-0.4,0.8-1.1,1.5-1.8,1.9C118.8,123.5,117.9,123.7,116.9,123.7z M117,122.4c0.8,0,1.5-0.2,2.1-0.5c0.6-0.4,1.1-0.9,1.5-1.5
				c0.4-0.7,0.5-1.4,0.5-2.3s-0.2-1.6-0.5-2.3c-0.4-0.6-0.8-1.1-1.5-1.5c-0.6-0.4-1.3-0.5-2.1-0.5s-1.5,0.2-2.1,0.5
				c-0.6,0.4-1.1,0.9-1.5,1.5s-0.5,1.4-0.5,2.3s0.2,1.6,0.5,2.3c0.4,0.7,0.9,1.2,1.5,1.5C115.6,122.2,116.3,122.4,117,122.4z
				 M121.2,123.5v-3.3l0.1-2.2l-0.2-2.2V108h1.5v15.6L121.2,123.5L121.2,123.5z"/>
			<path class="st1" d="M129.7,123.7c-0.9,0-1.8-0.1-2.6-0.4s-1.4-0.6-1.9-1l0.7-1.2c0.4,0.3,1,0.6,1.7,0.9c0.7,0.2,1.4,0.4,2.2,0.4
				c1,0,1.8-0.2,2.3-0.5s0.7-0.8,0.7-1.3c0-0.4-0.1-0.7-0.4-1c-0.3-0.2-0.6-0.4-1-0.5s-0.9-0.2-1.4-0.3s-1-0.2-1.5-0.3
				c-0.5-0.1-1-0.3-1.4-0.5s-0.8-0.5-1-0.9c-0.3-0.4-0.4-0.9-0.4-1.5s0.2-1.1,0.5-1.6s0.8-0.9,1.5-1.1c0.7-0.3,1.4-0.4,2.4-0.4
				c0.7,0,1.4,0.1,2.1,0.3c0.7,0.2,1.3,0.4,1.8,0.7l-0.7,1.2c-0.5-0.3-1-0.6-1.6-0.7s-1.1-0.2-1.7-0.2c-1,0-1.7,0.2-2.2,0.5
				s-0.7,0.8-0.7,1.3c0,0.4,0.1,0.8,0.4,1c0.3,0.2,0.6,0.4,1,0.6c0.4,0.1,0.9,0.2,1.4,0.3c0.5,0.1,1,0.2,1.5,0.3
				c0.5,0.1,1,0.3,1.4,0.5s0.8,0.5,1,0.9c0.3,0.4,0.4,0.9,0.4,1.5s-0.2,1.2-0.5,1.7c-0.4,0.5-0.9,0.8-1.6,1.1
				C131.5,123.5,130.7,123.7,129.7,123.7z"/>
		</g>
	</g>
	<g id="Friends_icon_2_">
		<g>
			<circle class="st2" cx="95.4" cy="61.2" r="12.6"/>
			<path class="st3" d="M73.2,96.2c0-12.3,10-22.2,22.2-22.2s22.2,10,22.2,22.2H73.2z"/>
		</g>
		<g>
			<circle class="st2" cx="116" cy="35.9" r="9.6"/>
			<path class="st3" d="M103.3,51.4c3.1-3.6,7.7-5.8,12.8-5.8c9.4,0,16.9,7.6,16.9,16.9h-25.1"/>
		</g>
		<g>
			<ellipse transform="matrix(0.9239 -0.3827 0.3827 0.9239 -8.0406 31.2771)" class="st2" cx="74.6" cy="35.9" rx="9.6" ry="9.6"/>
			<path class="st3" d="M87.5,51.4c-3.1-3.6-7.7-5.8-12.8-5.8c-9.4,0-16.9,7.6-16.9,16.9h25"/>
		</g>
	</g>
</g>
</svg>
