<?xml version="1.0" encoding="utf-8"?>
<!-- Generator: Adobe Illustrator 22.1.0, SVG Export Plug-In . SVG Version: 6.00 Build 0)  -->
<svg version="1.1" id="Шар_1" xmlns="http://www.w3.org/2000/svg" xmlns:xlink="http://www.w3.org/1999/xlink" x="0px" y="0px"
	 viewBox="0 0 192 150" style="enable-background:new 0 0 192 150;" xml:space="preserve">
<style type="text/css">
	.st0{opacity:0.3;fill:#333333;enable-background:new    ;}
	.st1{fill:#FFFFFF;}
	.st2{fill:none;stroke:#FFFFFF;stroke-width:4;stroke-miterlimit:10;}
</style>
<path id="Home_button_1_" class="st0" d="M180,150H12c-6.6,0-12-5.4-12-12V12C0,5.4,5.4,0,12,0h168c6.6,0,12,5.4,12,12v126
	C192,144.6,186.6,150,180,150z"/>
<g id="Home_1_">
	<g id="Home_txt_1_">
		<g id="Home_txt_2_">
			<path class="st1" d="M67.4,123.5h-1.5v-14.7h1.6L67.4,123.5L67.4,123.5z M76.8,116.8h-9.5v-1.4h9.5V116.8z M76.6,108.8h1.5v14.7
				h-1.5V108.8z"/>
			<path class="st1" d="M87.1,123.7c-1.1,0-2-0.2-2.9-0.7c-0.8-0.5-1.5-1.2-2-2c-0.5-0.9-0.7-1.8-0.7-2.9s0.2-2.1,0.7-2.9
				s1.2-1.5,2-2s1.8-0.7,2.9-0.7c1.1,0,2.1,0.2,2.9,0.7c0.8,0.5,1.5,1.1,2,2s0.7,1.8,0.7,2.9s-0.2,2.1-0.7,2.9s-1.2,1.5-2,2
				C89.2,123.4,88.2,123.7,87.1,123.7z M87.1,122.3c0.8,0,1.5-0.2,2.1-0.5c0.6-0.4,1.1-0.9,1.5-1.5c0.4-0.7,0.5-1.4,0.5-2.3
				s-0.2-1.6-0.5-2.3c-0.4-0.6-0.8-1.1-1.5-1.5c-0.6-0.4-1.3-0.5-2.1-0.5s-1.5,0.2-2.1,0.5c-0.6,0.4-1.1,0.9-1.5,1.5
				S83,117.1,83,118s0.2,1.6,0.5,2.3c0.4,0.7,0.9,1.2,1.5,1.5C85.7,122.2,86.3,122.3,87.1,122.3z"/>
			<path class="st1" d="M109.6,112.4c0.9,0,1.7,0.2,2.3,0.5s1.2,0.9,1.6,1.6c0.4,0.7,0.6,1.6,0.6,2.6v6.4h-1.5v-6.3
				c0-1.2-0.3-2-0.8-2.6c-0.6-0.6-1.3-0.9-2.3-0.9c-0.8,0-1.4,0.2-2,0.5s-1,0.8-1.3,1.4s-0.5,1.3-0.5,2.2v5.8h-1.5v-6.3
				c0-1.2-0.3-2-0.8-2.6c-0.6-0.6-1.3-0.9-2.4-0.9c-0.7,0-1.4,0.2-2,0.5s-1,0.8-1.3,1.4s-0.5,1.3-0.5,2.2v5.8h-1.5v-11h1.4v3
				l-0.2-0.5c0.3-0.8,0.9-1.4,1.6-1.9s1.6-0.7,2.7-0.7c1.1,0,2,0.3,2.8,0.8s1.2,1.3,1.5,2.4l-0.6-0.2c0.3-0.9,0.9-1.6,1.7-2.2
				C107.5,112.7,108.4,112.4,109.6,112.4z"/>
			<path class="st1" d="M122.8,123.7c-1.1,0-2.2-0.2-3-0.7c-0.9-0.5-1.5-1.1-2-2c-0.5-0.8-0.7-1.8-0.7-2.9s0.2-2.1,0.7-2.9
				s1.1-1.5,1.9-2c0.8-0.5,1.7-0.7,2.8-0.7c1,0,2,0.2,2.8,0.7s1.4,1.1,1.9,2c0.5,0.8,0.7,1.8,0.7,2.9c0,0.1,0,0.1,0,0.2s0,0.2,0,0.2
				h-9.6v-1.1h8.8l-0.6,0.4c0-0.8-0.2-1.5-0.5-2.1s-0.8-1.1-1.4-1.5c-0.6-0.3-1.3-0.5-2-0.5c-0.8,0-1.4,0.2-2,0.5
				c-0.6,0.4-1.1,0.8-1.4,1.5c-0.3,0.6-0.5,1.4-0.5,2.2v0.2c0,0.8,0.2,1.6,0.6,2.2c0.4,0.6,0.9,1.1,1.6,1.5c0.7,0.4,1.4,0.5,2.3,0.5
				c0.7,0,1.3-0.1,1.9-0.4c0.6-0.2,1.1-0.6,1.5-1.1l0.8,1c-0.5,0.6-1.1,1-1.8,1.3C124.5,123.5,123.7,123.7,122.8,123.7z"/>
		</g>
	</g>
	<g id="Home_pic_1_">
		<path class="st2" d="M131.9,60l-6.6-6.3V32.3c0-0.5-0.4-0.9-0.9-0.9h-14.2c-0.5,0-0.9,0.4-0.9,0.9v4.3c0,0.8-0.9,1.2-1.5,0.6
			L96.6,26.6c-0.3-0.3-0.9-0.3-1.2,0L60.2,59.9c-0.6,0.5-0.2,1.5,0.6,1.5h7.3c0.5,0,0.9,0.4,0.9,0.9v33.2c0,0.5,0.4,0.9,0.9,0.9
			h52.2c0.5,0,0.9-0.4,0.9-0.9V62.3c0-0.5,0.4-0.9,0.9-0.9h7.3C132.1,61.5,132.5,60.5,131.9,60z"/>
		<path class="st2" d="M103.2,74.4H88.9c-0.6,0-1,0.4-1,1v21h16.3v-21C104.2,74.9,103.8,74.4,103.2,74.4z"/>
	</g>
</g>
</svg>
