<?xml version="1.0" encoding="utf-8"?>
<!-- Generator: Adobe Illustrator 22.1.0, SVG Export Plug-In . SVG Version: 6.00 Build 0)  -->
<svg version="1.1" id="Шар_1" xmlns="http://www.w3.org/2000/svg" xmlns:xlink="http://www.w3.org/1999/xlink" x="0px" y="0px"
	 viewBox="0 0 192 150" style="enable-background:new 0 0 192 150;" xml:space="preserve">
<style type="text/css">
	.st0{opacity:0.3;fill:#333333;enable-background:new    ;}
	.st1{fill:none;stroke:#FFFFFF;stroke-width:4;stroke-linejoin:round;stroke-miterlimit:10;}
	.st2{fill:none;stroke:#FFFFFF;stroke-linejoin:round;stroke-miterlimit:10;}
	.st3{fill:none;stroke:#FFFFFF;stroke-width:2;stroke-linecap:round;stroke-miterlimit:10;}
	.st4{fill:#FFFFFF;}
</style>
<path id="Report_button" class="st0" d="M180,150H12c-6.6,0-12-5.4-12-12V12C0,5.4,5.4,0,12,0h168c6.6,0,12,5.4,12,12v126
	C192,144.5,186.6,150,180,150z"/>
<g id="Report_3_">
	<g id="Report_icon_2_">
		<path class="st1" d="M106.8,30H118c1.1,0,2,0.9,2,2v60.1c0,1.1-0.9,2-2,2H72.6c-1.1,0-2-0.9-2-2V32c0-1.1,0.9-2,2-2H83"/>
		<rect x="83.2" y="24.1" class="st1" width="23.7" height="11.8"/>
		<g>
			<rect x="77.3" y="74.2" class="st2" width="8.9" height="8.9"/>
			<g>
				<line class="st3" x1="90.5" y1="75.1" x2="112.3" y2="75.1"/>
				<line class="st3" x1="90.5" y1="82.6" x2="112.3" y2="82.6"/>
				<line class="st3" x1="90.5" y1="78.9" x2="112.3" y2="78.9"/>
			</g>
			<g>
				<line class="st3" x1="76.8" y1="75.8" x2="81.7" y2="80.7"/>
				<line class="st3" x1="81.7" y1="80.8" x2="88.5" y2="73.8"/>
			</g>
		</g>
		<g>
			<rect x="77.3" y="57.9" class="st2" width="8.9" height="8.9"/>
			<g>
				<line class="st3" x1="90.5" y1="58.9" x2="112.3" y2="58.9"/>
				<line class="st3" x1="90.5" y1="66.3" x2="112.3" y2="66.3"/>
				<line class="st3" x1="90.5" y1="62.6" x2="112.3" y2="62.6"/>
			</g>
			<g>
				<line class="st3" x1="76.8" y1="59.6" x2="81.7" y2="64.4"/>
				<line class="st3" x1="81.7" y1="64.5" x2="88.5" y2="57.5"/>
			</g>
		</g>
		<g>
			<rect x="77.3" y="41.6" class="st2" width="8.9" height="8.9"/>
			<g>
				<line class="st3" x1="90.5" y1="42.6" x2="112.3" y2="42.6"/>
				<line class="st3" x1="90.5" y1="50" x2="112.3" y2="50"/>
				<line class="st3" x1="90.5" y1="46.3" x2="112.3" y2="46.3"/>
			</g>
			<g>
				<line class="st3" x1="76.8" y1="43.3" x2="81.7" y2="48.2"/>
				<line class="st3" x1="81.7" y1="48.2" x2="88.5" y2="41.3"/>
			</g>
		</g>
	</g>
	<g id="Report_txt_4_">
		<g id="Report_txt_3_">
			<path class="st4" d="M61.5,121.8v-14.7H67c1.2,0,2.3,0.2,3.2,0.6s1.6,1,2.1,1.7s0.7,1.7,0.7,2.7s-0.2,1.9-0.7,2.7
				s-1.2,1.3-2.1,1.7c-0.9,0.4-2,0.6-3.2,0.6h-4.6l0.7-0.7v5.4L61.5,121.8L61.5,121.8z M63,116.6l-0.7-0.7h4.6c1.5,0,2.6-0.3,3.3-1
				c0.8-0.6,1.1-1.5,1.1-2.7s-0.4-2.1-1.1-2.7c-0.8-0.6-1.9-1-3.3-1h-4.6l0.7-0.7V116.6z M71.5,121.8l-3.8-5.3h1.7l3.8,5.3H71.5z"/>
			<path class="st4" d="M81,122c-1.1,0-2.2-0.2-3-0.7c-0.9-0.5-1.5-1.1-2-2s-0.7-1.8-0.7-2.9s0.2-2.1,0.7-2.9s1.1-1.5,1.9-2
				c0.8-0.5,1.7-0.7,2.8-0.7c1,0,2,0.2,2.8,0.7s1.4,1.1,1.9,2c0.5,0.8,0.7,1.8,0.7,2.9c0,0.1,0,0.1,0,0.2s0,0.2,0,0.2h-9.6v-1.1h8.8
				l-0.6,0.4c0-0.8-0.2-1.5-0.5-2.1s-0.8-1.1-1.4-1.5c-0.6-0.3-1.3-0.5-2-0.5c-0.8,0-1.4,0.2-2,0.5c-0.6,0.4-1.1,0.8-1.4,1.5
				c-0.3,0.6-0.5,1.4-0.5,2.2v0.2c0,0.8,0.2,1.6,0.6,2.2c0.4,0.6,0.9,1.1,1.6,1.5c0.7,0.4,1.4,0.5,2.3,0.5c0.7,0,1.3-0.1,1.9-0.4
				c0.6-0.2,1.1-0.6,1.5-1.1l0.8,1c-0.5,0.6-1.1,1-1.8,1.3C82.7,121.8,81.9,122,81,122z"/>
			<path class="st4" d="M89,125.9v-15.1h1.4v3.3l-0.1,2.2l0.2,2.2v7.4H89z M94.7,122c-1,0-1.8-0.2-2.6-0.7c-0.8-0.4-1.4-1.1-1.8-1.9
				c-0.5-0.8-0.7-1.9-0.7-3.1s0.2-2.2,0.7-3.1s1.1-1.5,1.8-1.9c0.8-0.4,1.6-0.7,2.6-0.7s2,0.2,2.8,0.7s1.5,1.1,2,2
				c0.5,0.8,0.7,1.8,0.7,2.9s-0.2,2.1-0.7,2.9s-1.1,1.5-2,2C96.7,121.7,95.8,122,94.7,122z M94.5,120.6c0.8,0,1.5-0.2,2.1-0.5
				c0.6-0.4,1.1-0.9,1.5-1.5c0.4-0.7,0.5-1.4,0.5-2.3s-0.2-1.6-0.5-2.2c-0.4-0.6-0.9-1.1-1.5-1.5s-1.3-0.5-2.1-0.5s-1.5,0.2-2.1,0.5
				c-0.6,0.4-1.1,0.9-1.5,1.5s-0.5,1.4-0.5,2.2c0,0.9,0.2,1.6,0.5,2.3c0.4,0.7,0.8,1.2,1.5,1.5C93,120.5,93.8,120.6,94.5,120.6z"/>
			<path class="st4" d="M107.8,122c-1.1,0-2-0.2-2.9-0.7c-0.8-0.5-1.5-1.2-2-2c-0.5-0.9-0.7-1.8-0.7-2.9s0.2-2.1,0.7-2.9
				s1.2-1.5,2-2s1.8-0.7,2.9-0.7c1.1,0,2.1,0.2,2.9,0.7c0.8,0.5,1.5,1.1,2,2c0.5,0.8,0.7,1.8,0.7,2.9s-0.2,2.1-0.7,2.9s-1.2,1.5-2,2
				C109.8,121.7,108.8,122,107.8,122z M107.8,120.6c0.8,0,1.5-0.2,2.1-0.5c0.6-0.4,1.1-0.9,1.5-1.5c0.4-0.7,0.5-1.4,0.5-2.3
				s-0.2-1.6-0.5-2.3c-0.4-0.6-0.8-1.1-1.5-1.5c-0.6-0.4-1.3-0.5-2.1-0.5s-1.5,0.2-2.1,0.5c-0.6,0.4-1.1,0.9-1.5,1.5
				s-0.5,1.4-0.5,2.3s0.2,1.6,0.5,2.3c0.4,0.7,0.9,1.2,1.5,1.5C106.3,120.5,107,120.6,107.8,120.6z"/>
			<path class="st4" d="M116.4,121.8v-11h1.4v3l-0.1-0.5c0.3-0.8,0.8-1.5,1.6-1.9c0.7-0.4,1.6-0.7,2.7-0.7v1.4c-0.1,0-0.1,0-0.2,0
				s-0.1,0-0.2,0c-1.2,0-2.1,0.4-2.7,1.1c-0.7,0.7-1,1.7-1,3v5.6H116.4z"/>
			<path class="st4" d="M123,112.1v-1.2h6.8v1.2H123z M128.3,122c-1,0-1.8-0.3-2.4-0.8c-0.6-0.6-0.8-1.4-0.8-2.4v-10.4h1.5v10.3
				c0,0.6,0.2,1.1,0.5,1.5s0.8,0.5,1.4,0.5c0.7,0,1.2-0.2,1.6-0.6l0.5,1.1c-0.3,0.3-0.6,0.5-1.1,0.6
				C129.2,121.9,128.8,122,128.3,122z"/>
		</g>
	</g>
</g>
</svg>
