<?xml version="1.0" encoding="utf-8"?>
<!-- Generator: Adobe Illustrator 22.1.0, SVG Export Plug-In . SVG Version: 6.00 Build 0)  -->
<svg version="1.1" id="Шар_2" xmlns="http://www.w3.org/2000/svg" xmlns:xlink="http://www.w3.org/1999/xlink" x="0px" y="0px"
	 viewBox="0 0 1080 1920" style="enable-background:new 0 0 1080 1920;" xml:space="preserve">
<style type="text/css">
	.st0{fill:#4D4D4D;}
	.st1{fill:#CCCCCC;}
	.st2{fill:none;stroke:#CCCCCC;stroke-width:4;stroke-miterlimit:10;}
	.st3{fill:none;stroke:#CCCCCC;stroke-width:4;stroke-linecap:round;stroke-miterlimit:10;}
	.st4{fill:none;stroke:#CCCCCC;stroke-width:4;stroke-linejoin:round;stroke-miterlimit:10;}
	.st5{fill:none;stroke:#CCCCCC;stroke-width:2;stroke-linecap:round;stroke-miterlimit:10;}
	.st6{font-family:'Calibri-Bold';}
	.st7{font-size:24px;}
	.st8{fill:none;stroke:#CCCCCC;stroke-linejoin:round;stroke-miterlimit:10;}
</style>
<path class="st0" d="M1008,1859H72c-6.6,0-12-5.4-12-12v-126c0-6.6,5.4-12,12-12h936c6.6,0,12,5.4,12,12v126
	C1020,1853.6,1014.6,1859,1008,1859z"/>
<g id="Home_1_">
	<g id="Home_txt_1_">
		<g id="Home_txt_2_">
			<path class="st1" d="M125.5,1832.5H124v-14.7h1.6V1832.5z M134.9,1825.8h-9.5v-1.4h9.5V1825.8z M134.7,1817.8h1.5v14.7h-1.5
				V1817.8z"/>
			<path class="st1" d="M145.2,1832.7c-1.1,0-2-0.2-2.9-0.7c-0.8-0.5-1.5-1.2-2-2c-0.5-0.9-0.7-1.8-0.7-2.9c0-1.1,0.2-2.1,0.7-2.9
				c0.5-0.8,1.2-1.5,2-2c0.8-0.5,1.8-0.7,2.9-0.7c1.1,0,2.1,0.2,2.9,0.7c0.8,0.5,1.5,1.1,2,2s0.7,1.8,0.7,2.9c0,1.1-0.2,2.1-0.7,2.9
				s-1.2,1.5-2,2C147.3,1832.4,146.3,1832.7,145.2,1832.7z M145.2,1831.3c0.8,0,1.5-0.2,2.1-0.5c0.6-0.4,1.1-0.9,1.5-1.5
				c0.4-0.7,0.5-1.4,0.5-2.3c0-0.9-0.2-1.6-0.5-2.3c-0.4-0.6-0.8-1.1-1.5-1.5c-0.6-0.4-1.3-0.5-2.1-0.5c-0.8,0-1.5,0.2-2.1,0.5
				c-0.6,0.4-1.1,0.9-1.5,1.5c-0.4,0.6-0.5,1.4-0.5,2.3c0,0.9,0.2,1.6,0.5,2.3c0.4,0.7,0.9,1.2,1.5,1.5
				C143.8,1831.2,144.4,1831.3,145.2,1831.3z"/>
			<path class="st1" d="M167.7,1821.4c0.9,0,1.7,0.2,2.3,0.5s1.2,0.9,1.6,1.6c0.4,0.7,0.6,1.6,0.6,2.6v6.4h-1.5v-6.3
				c0-1.2-0.3-2-0.8-2.6c-0.6-0.6-1.3-0.9-2.3-0.9c-0.8,0-1.4,0.2-2,0.5c-0.6,0.3-1,0.8-1.3,1.4c-0.3,0.6-0.5,1.3-0.5,2.2v5.8h-1.5
				v-6.3c0-1.2-0.3-2-0.8-2.6c-0.6-0.6-1.3-0.9-2.4-0.9c-0.7,0-1.4,0.2-2,0.5c-0.6,0.3-1,0.8-1.3,1.4c-0.3,0.6-0.5,1.3-0.5,2.2v5.8
				h-1.5v-11h1.4v3l-0.2-0.5c0.3-0.8,0.9-1.4,1.6-1.9s1.6-0.7,2.7-0.7c1.1,0,2,0.3,2.8,0.8s1.2,1.3,1.5,2.4l-0.6-0.2
				c0.3-0.9,0.9-1.6,1.7-2.2C165.6,1821.7,166.5,1821.4,167.7,1821.4z"/>
			<path class="st1" d="M180.9,1832.7c-1.1,0-2.2-0.2-3-0.7c-0.9-0.5-1.5-1.1-2-2c-0.5-0.8-0.7-1.8-0.7-2.9c0-1.1,0.2-2.1,0.7-2.9
				c0.5-0.8,1.1-1.5,1.9-2c0.8-0.5,1.7-0.7,2.8-0.7c1,0,2,0.2,2.8,0.7c0.8,0.5,1.4,1.1,1.9,2c0.5,0.8,0.7,1.8,0.7,2.9
				c0,0.1,0,0.1,0,0.2c0,0.1,0,0.2,0,0.2h-9.6v-1.1h8.8l-0.6,0.4c0-0.8-0.2-1.5-0.5-2.1c-0.3-0.6-0.8-1.1-1.4-1.5
				c-0.6-0.3-1.3-0.5-2-0.5c-0.8,0-1.4,0.2-2,0.5c-0.6,0.4-1.1,0.8-1.4,1.5c-0.3,0.6-0.5,1.4-0.5,2.2v0.2c0,0.8,0.2,1.6,0.6,2.2
				c0.4,0.6,0.9,1.1,1.6,1.5c0.7,0.4,1.4,0.5,2.3,0.5c0.7,0,1.3-0.1,1.9-0.4c0.6-0.2,1.1-0.6,1.5-1.1l0.8,1c-0.5,0.6-1.1,1-1.8,1.3
				C182.6,1832.5,181.8,1832.7,180.9,1832.7z"/>
		</g>
	</g>
	<g id="Home_pic_1_">
		<path class="st2" d="M190,1769l-6.6-6.3v-21.4c0-0.5-0.4-0.9-0.9-0.9h-14.2c-0.5,0-0.9,0.4-0.9,0.9v4.3c0,0.8-0.9,1.2-1.5,0.6
			l-11.2-10.6c-0.3-0.3-0.9-0.3-1.2,0l-35.2,33.3c-0.6,0.5-0.2,1.5,0.6,1.5h7.3c0.5,0,0.9,0.4,0.9,0.9v33.2c0,0.5,0.4,0.9,0.9,0.9
			h52.2c0.5,0,0.9-0.4,0.9-0.9v-33.2c0-0.5,0.4-0.9,0.9-0.9h7.3C190.2,1770.5,190.6,1769.5,190,1769z"/>
		<path class="st2" d="M161.3,1783.4H147c-0.6,0-1,0.4-1,1v21h16.3v-21C162.3,1783.9,161.9,1783.4,161.3,1783.4z"/>
	</g>
</g>
<g id="Donate_1_">
	<g id="Donate_txt_1_">
		<g id="Donate_txt_2_">
			<path class="st1" d="M308,1832.5v-14.7h6c1.6,0,2.9,0.3,4.1,0.9s2.1,1.5,2.8,2.6c0.7,1.1,1,2.4,1,3.8c0,1.4-0.3,2.7-1,3.8
				c-0.7,1.1-1.6,2-2.8,2.6s-2.6,0.9-4.1,0.9H308z M309.5,1831.2h4.3c1.3,0,2.4-0.3,3.4-0.8s1.7-1.2,2.2-2.1s0.8-1.9,0.8-3.1
				c0-1.2-0.3-2.2-0.8-3.1c-0.5-0.9-1.3-1.6-2.2-2.1c-1-0.5-2.1-0.8-3.4-0.8h-4.3V1831.2z"/>
			<path class="st1" d="M329.5,1832.7c-1.1,0-2-0.2-2.9-0.7c-0.8-0.5-1.5-1.2-2-2c-0.5-0.9-0.7-1.8-0.7-2.9c0-1.1,0.2-2.1,0.7-2.9
				c0.5-0.8,1.2-1.5,2-2c0.8-0.5,1.8-0.7,2.9-0.7c1.1,0,2.1,0.2,2.9,0.7c0.8,0.5,1.5,1.1,2,2s0.7,1.8,0.7,2.9c0,1.1-0.2,2.1-0.7,2.9
				s-1.2,1.5-2,2C331.6,1832.4,330.6,1832.7,329.5,1832.7z M329.5,1831.3c0.8,0,1.5-0.2,2.1-0.5c0.6-0.4,1.1-0.9,1.5-1.5
				c0.4-0.7,0.5-1.4,0.5-2.3c0-0.9-0.2-1.6-0.5-2.3c-0.4-0.6-0.8-1.1-1.5-1.5c-0.6-0.4-1.3-0.5-2.1-0.5c-0.8,0-1.5,0.2-2.1,0.5
				c-0.6,0.4-1.1,0.9-1.5,1.5c-0.4,0.6-0.5,1.4-0.5,2.3c0,0.9,0.2,1.6,0.5,2.3c0.4,0.7,0.9,1.2,1.5,1.5
				C328,1831.2,328.7,1831.3,329.5,1831.3z"/>
			<path class="st1" d="M343.8,1821.4c0.9,0,1.7,0.2,2.4,0.5s1.2,0.9,1.6,1.6c0.4,0.7,0.6,1.6,0.6,2.6v6.4h-1.5v-6.3
				c0-1.2-0.3-2-0.9-2.6c-0.6-0.6-1.4-0.9-2.4-0.9c-0.8,0-1.5,0.2-2,0.5c-0.6,0.3-1,0.8-1.3,1.4s-0.5,1.3-0.5,2.2v5.8h-1.5v-11h1.4
				v3l-0.2-0.6c0.4-0.8,0.9-1.4,1.7-1.9C341.8,1821.6,342.7,1821.4,343.8,1821.4z"/>
			<path class="st1" d="M355.5,1832.7c-0.8,0-1.5-0.1-2.2-0.4c-0.6-0.3-1.1-0.7-1.4-1.1c-0.3-0.5-0.5-1-0.5-1.7
				c0-0.6,0.1-1.1,0.4-1.6c0.3-0.5,0.7-0.8,1.3-1.1c0.6-0.3,1.5-0.4,2.5-0.4h3.8v1.1h-3.8c-1.1,0-1.8,0.2-2.2,0.6
				c-0.4,0.4-0.6,0.8-0.6,1.4c0,0.6,0.2,1.1,0.7,1.5s1.2,0.6,2.1,0.6c0.8,0,1.6-0.2,2.2-0.6c0.6-0.4,1.1-0.9,1.3-1.7l0.3,1
				c-0.3,0.7-0.8,1.3-1.5,1.7C357.4,1832.4,356.5,1832.7,355.5,1832.7z M359.3,1832.5v-2.4l-0.1-0.4v-4.1c0-0.9-0.3-1.7-0.8-2.2
				c-0.5-0.5-1.3-0.8-2.3-0.8c-0.7,0-1.4,0.1-2,0.4s-1.2,0.6-1.6,0.9l-0.7-1.1c0.6-0.5,1.2-0.8,2-1.1s1.6-0.4,2.5-0.4
				c1.4,0,2.5,0.4,3.3,1.1s1.2,1.8,1.2,3.2v6.8H359.3z"/>
			<path class="st1" d="M363,1822.8v-1.2h6.8v1.2H363z M368.3,1832.7c-1,0-1.8-0.3-2.4-0.8c-0.6-0.6-0.8-1.4-0.8-2.4v-10.4h1.5v10.3
				c0,0.6,0.2,1.1,0.5,1.5c0.3,0.4,0.8,0.5,1.4,0.5c0.7,0,1.2-0.2,1.6-0.6l0.5,1.1c-0.3,0.3-0.6,0.5-1.1,0.6
				C369.1,1832.6,368.7,1832.7,368.3,1832.7z"/>
			<path class="st1" d="M378,1832.7c-1.1,0-2.2-0.2-3-0.7c-0.9-0.5-1.5-1.1-2-2c-0.5-0.8-0.7-1.8-0.7-2.9c0-1.1,0.2-2.1,0.7-2.9
				c0.5-0.8,1.1-1.5,1.9-2c0.8-0.5,1.7-0.7,2.8-0.7c1,0,2,0.2,2.8,0.7c0.8,0.5,1.4,1.1,1.9,2c0.5,0.8,0.7,1.8,0.7,2.9
				c0,0.1,0,0.1,0,0.2c0,0.1,0,0.2,0,0.2h-9.6v-1.1h8.8l-0.6,0.4c0-0.8-0.2-1.5-0.5-2.1c-0.3-0.6-0.8-1.1-1.4-1.5
				c-0.6-0.3-1.3-0.5-2-0.5c-0.8,0-1.4,0.2-2,0.5c-0.6,0.4-1.1,0.8-1.4,1.5c-0.3,0.6-0.5,1.4-0.5,2.2v0.2c0,0.8,0.2,1.6,0.6,2.2
				c0.4,0.6,0.9,1.1,1.6,1.5c0.7,0.4,1.4,0.5,2.3,0.5c0.7,0,1.3-0.1,1.9-0.4c0.6-0.2,1.1-0.6,1.5-1.1l0.8,1c-0.5,0.6-1.1,1-1.8,1.3
				C379.7,1832.5,378.9,1832.7,378,1832.7z"/>
		</g>
	</g>
	<g id="Donate_pic_1_">
		<line class="st3" x1="338.6" y1="1756.3" x2="331.9" y2="1756.3"/>
		<line class="st3" x1="358.7" y1="1756.3" x2="351.2" y2="1756.3"/>
		<rect x="311.7" y="1774.7" class="st4" width="67.1" height="30.6"/>
		<rect x="311.7" y="1765.7" class="st4" width="67.1" height="9"/>
		<path class="st4" d="M311.7,1765.7l6.5-16.1h16 M356.7,1749.6h15.6l6.5,16.1"/>
		<path class="st2" d="M357,1746.9c0,0.9-0.1,1.9-0.3,2.7c-0.7,2.7-2.3,5.1-4.5,6.7h-13.6c-2.2-1.6-3.8-3.9-4.5-6.7
			c-0.2-0.9-0.3-1.8-0.3-2.7c0-6.4,5.2-11.6,11.6-11.6C351.8,1735.3,357,1740.5,357,1746.9z"/>
		<g>
			<line class="st5" x1="338.9" y1="1787.9" x2="350.1" y2="1787.9"/>
			<line class="st5" x1="338.9" y1="1790.9" x2="350.1" y2="1790.9"/>
			<text transform="matrix(-1 0 0 1 350.6138 1796.8733)" class="st1 st6 st7">S</text>
		</g>
	</g>
</g>
<g id="Friends_1_">
	<g id="Friends_txt_1_">
		<g id="Friends_txt_2_">
			<path class="st1" d="M501.8,1832.5h-1.6v-14.7h10.1v1.3h-8.5V1832.5z M501.6,1825h7.8v1.3h-7.8V1825z"/>
			<path class="st1" d="M513.2,1832.5v-11h1.4v3l-0.1-0.5c0.3-0.8,0.8-1.5,1.6-1.9c0.7-0.4,1.6-0.7,2.7-0.7v1.4c-0.1,0-0.1,0-0.2,0
				c-0.1,0-0.1,0-0.2,0c-1.2,0-2.1,0.4-2.7,1.1c-0.7,0.7-1,1.7-1,3v5.6H513.2z"/>
			<path class="st1" d="M522.4,1819.1c-0.3,0-0.6-0.1-0.8-0.3s-0.3-0.5-0.3-0.8s0.1-0.5,0.3-0.7s0.5-0.3,0.8-0.3
				c0.3,0,0.6,0.1,0.8,0.3s0.3,0.4,0.3,0.7c0,0.3-0.1,0.6-0.3,0.8C523,1819,522.7,1819.1,522.4,1819.1z M521.6,1832.5v-11h1.5v11
				H521.6z"/>
			<path class="st1" d="M531.9,1832.7c-1.1,0-2.2-0.2-3-0.7c-0.9-0.5-1.5-1.1-2-2c-0.5-0.8-0.7-1.8-0.7-2.9c0-1.1,0.2-2.1,0.7-2.9
				c0.5-0.8,1.1-1.5,1.9-2c0.8-0.5,1.7-0.7,2.8-0.7c1,0,2,0.2,2.8,0.7c0.8,0.5,1.4,1.1,1.9,2c0.5,0.8,0.7,1.8,0.7,2.9
				c0,0.1,0,0.1,0,0.2c0,0.1,0,0.2,0,0.2h-9.6v-1.1h8.8l-0.6,0.4c0-0.8-0.2-1.5-0.5-2.1c-0.3-0.6-0.8-1.1-1.4-1.5
				c-0.6-0.3-1.3-0.5-2-0.5c-0.8,0-1.4,0.2-2,0.5c-0.6,0.4-1.1,0.8-1.4,1.5c-0.3,0.6-0.5,1.4-0.5,2.2v0.2c0,0.8,0.2,1.6,0.6,2.2
				c0.4,0.6,0.9,1.1,1.6,1.5c0.7,0.4,1.4,0.5,2.3,0.5c0.7,0,1.3-0.1,1.9-0.4c0.6-0.2,1.1-0.6,1.5-1.1l0.8,1c-0.5,0.6-1.1,1-1.8,1.3
				C533.6,1832.5,532.8,1832.7,531.9,1832.7z"/>
			<path class="st1" d="M545.6,1821.4c0.9,0,1.7,0.2,2.4,0.5c0.7,0.3,1.2,0.9,1.6,1.6c0.4,0.7,0.6,1.6,0.6,2.6v6.4h-1.5v-6.3
				c0-1.2-0.3-2-0.9-2.6c-0.6-0.6-1.4-0.9-2.4-0.9c-0.8,0-1.5,0.2-2,0.5s-1,0.8-1.3,1.4c-0.3,0.6-0.5,1.3-0.5,2.2v5.8H540v-11h1.4v3
				l-0.2-0.6c0.3-0.8,0.9-1.4,1.7-1.9S544.5,1821.4,545.6,1821.4z"/>
			<path class="st1" d="M558.5,1832.7c-1,0-2-0.2-2.8-0.7c-0.8-0.5-1.5-1.1-2-2c-0.5-0.8-0.7-1.8-0.7-2.9c0-1.1,0.2-2.1,0.7-2.9
				s1.1-1.5,2-2c0.8-0.5,1.8-0.7,2.8-0.7c1,0,1.8,0.2,2.6,0.7c0.8,0.4,1.4,1.1,1.8,1.9c0.5,0.8,0.7,1.9,0.7,3.1c0,1.2-0.2,2.2-0.7,3
				c-0.4,0.8-1.1,1.5-1.8,1.9C560.4,1832.4,559.5,1832.7,558.5,1832.7z M558.6,1831.3c0.8,0,1.5-0.2,2.1-0.5
				c0.6-0.4,1.1-0.9,1.5-1.5c0.4-0.7,0.5-1.4,0.5-2.3c0-0.9-0.2-1.6-0.5-2.3c-0.4-0.6-0.8-1.1-1.5-1.5c-0.6-0.4-1.3-0.5-2.1-0.5
				c-0.8,0-1.5,0.2-2.1,0.5c-0.6,0.4-1.1,0.9-1.5,1.5c-0.4,0.6-0.5,1.4-0.5,2.3c0,0.9,0.2,1.6,0.5,2.3c0.4,0.7,0.9,1.2,1.5,1.5
				C557.2,1831.2,557.9,1831.3,558.6,1831.3z M562.8,1832.5v-3.3l0.1-2.2l-0.2-2.2v-7.8h1.5v15.6H562.8z"/>
			<path class="st1" d="M571.3,1832.7c-0.9,0-1.8-0.1-2.6-0.4s-1.4-0.6-1.9-1l0.7-1.2c0.4,0.3,1,0.6,1.7,0.9
				c0.7,0.2,1.4,0.4,2.2,0.4c1,0,1.8-0.2,2.3-0.5s0.7-0.8,0.7-1.3c0-0.4-0.1-0.7-0.4-1c-0.3-0.2-0.6-0.4-1-0.5s-0.9-0.2-1.4-0.3
				s-1-0.2-1.5-0.3c-0.5-0.1-1-0.3-1.4-0.5s-0.8-0.5-1-0.9c-0.3-0.4-0.4-0.9-0.4-1.5c0-0.6,0.2-1.1,0.5-1.6c0.3-0.5,0.8-0.9,1.5-1.1
				c0.7-0.3,1.4-0.4,2.4-0.4c0.7,0,1.4,0.1,2.1,0.3c0.7,0.2,1.3,0.4,1.8,0.7l-0.7,1.2c-0.5-0.3-1-0.6-1.6-0.7
				c-0.6-0.1-1.1-0.2-1.7-0.2c-1,0-1.7,0.2-2.2,0.5c-0.5,0.3-0.7,0.8-0.7,1.3c0,0.4,0.1,0.8,0.4,1c0.3,0.2,0.6,0.4,1,0.6
				c0.4,0.1,0.9,0.2,1.4,0.3c0.5,0.1,1,0.2,1.5,0.3c0.5,0.1,1,0.3,1.4,0.5s0.8,0.5,1,0.9c0.3,0.4,0.4,0.9,0.4,1.5
				c0,0.6-0.2,1.2-0.5,1.7c-0.4,0.5-0.9,0.8-1.6,1.1C573.1,1832.5,572.3,1832.7,571.3,1832.7z"/>
		</g>
	</g>
	<g id="Friends_icon_1_">
		<g>
			<circle class="st2" cx="537" cy="1770.2" r="12.6"/>
			<path class="st4" d="M514.8,1805.2c0-12.3,10-22.2,22.2-22.2s22.2,10,22.2,22.2H514.8z"/>
		</g>
		<g>
			<circle class="st2" cx="557.6" cy="1744.8" r="9.6"/>
			<path class="st4" d="M544.9,1760.3c3.1-3.6,7.7-5.8,12.8-5.8c9.4,0,16.9,7.6,16.9,16.9h-25.1"/>
		</g>
		<g>
			<circle class="st2" cx="516.2" cy="1744.8" r="9.6"/>
			<path class="st4" d="M529.1,1760.3c-3.1-3.6-7.7-5.8-12.8-5.8c-9.4,0-16.9,7.6-16.9,16.9h25"/>
		</g>
	</g>
</g>
<g id="Daily_1_">
	<g id="Daily_icon_1_">
		<g>
			<line class="st4" x1="748.7" y1="1742.8" x2="710.5" y2="1742.8"/>
			<path class="st4" d="M756.3,1742.8h9.8c0.5,0,1,0.4,1,1v15.7v44.2c0,0.6-0.5,1-1,1h-73.4c-0.5,0-1-0.4-1-1v-44.2v-15.7
				c0-0.6,0.5-1,1-1H703"/>
			<line class="st4" x1="691.7" y1="1759.5" x2="767" y2="1759.5"/>
			<path class="st4" d="M754.3,1750.9h-3.5c-1.1,0-2-0.9-2-2v-12.2c0-1.1,0.9-2,2-2h3.5c1.1,0,2,0.9,2,2v12.2
				C756.3,1750,755.4,1750.9,754.3,1750.9z"/>
			<path class="st4" d="M708.5,1750.9H705c-1.1,0-2-0.9-2-2v-12.2c0-1.1,0.9-2,2-2h3.5c1.1,0,2,0.9,2,2v12.2
				C710.5,1750,709.6,1750.9,708.5,1750.9z"/>
		</g>
		<g>
			<line class="st4" x1="698.9" y1="1777.3" x2="759.8" y2="1777.3"/>
			<line class="st4" x1="698.9" y1="1787.5" x2="759.8" y2="1787.5"/>
			<line class="st4" x1="708" y1="1767.6" x2="708" y2="1797.6"/>
			<line class="st4" x1="725.2" y1="1767.6" x2="725.2" y2="1797.6"/>
			<line class="st4" x1="716.6" y1="1767.6" x2="716.6" y2="1797.6"/>
			<line class="st4" x1="733.9" y1="1767.6" x2="733.9" y2="1797.6"/>
			<line class="st4" x1="742.5" y1="1767.6" x2="742.5" y2="1797.6"/>
			<line class="st4" x1="751.1" y1="1767.6" x2="751.1" y2="1797.6"/>
			<rect x="698.9" y="1767.6" class="st4" width="60.8" height="30"/>
		</g>
	</g>
	<g id="Daily_txt_1_">
		<g id="Daily_txt_2_">
			<path class="st1" d="M705,1832.5v-14.7h6c1.6,0,2.9,0.3,4.1,0.9c1.2,0.6,2.1,1.5,2.8,2.6c0.7,1.1,1,2.4,1,3.8
				c0,1.4-0.3,2.7-1,3.8c-0.7,1.1-1.6,2-2.8,2.6c-1.2,0.6-2.6,0.9-4.1,0.9H705z M706.5,1831.2h4.3c1.3,0,2.4-0.3,3.4-0.8
				s1.7-1.2,2.2-2.1s0.8-1.9,0.8-3.1c0-1.2-0.3-2.2-0.8-3.1c-0.5-0.9-1.3-1.6-2.2-2.1c-1-0.5-2.1-0.8-3.4-0.8h-4.3V1831.2z"/>
			<path class="st1" d="M725.1,1832.7c-0.8,0-1.5-0.1-2.2-0.4c-0.6-0.3-1.1-0.7-1.4-1.1c-0.3-0.5-0.5-1-0.5-1.7
				c0-0.6,0.1-1.1,0.4-1.6c0.3-0.5,0.7-0.8,1.3-1.1c0.6-0.3,1.5-0.4,2.5-0.4h3.8v1.1h-3.8c-1.1,0-1.8,0.2-2.2,0.6
				c-0.4,0.4-0.6,0.8-0.6,1.4c0,0.6,0.2,1.1,0.7,1.5s1.2,0.6,2.1,0.6c0.8,0,1.6-0.2,2.2-0.6s1.1-0.9,1.3-1.7l0.3,1
				c-0.3,0.7-0.8,1.3-1.5,1.7S726.2,1832.7,725.1,1832.7z M728.9,1832.5v-2.4l-0.1-0.4v-4.1c0-0.9-0.3-1.7-0.8-2.2s-1.3-0.8-2.3-0.8
				c-0.7,0-1.4,0.1-2,0.4c-0.6,0.2-1.2,0.6-1.6,0.9l-0.7-1.1c0.6-0.5,1.2-0.8,2-1.1s1.6-0.4,2.5-0.4c1.4,0,2.5,0.4,3.3,1.1
				c0.8,0.7,1.2,1.8,1.2,3.2v6.8H728.9z"/>
			<path class="st1" d="M735.2,1819.1c-0.3,0-0.6-0.1-0.8-0.3s-0.3-0.5-0.3-0.8s0.1-0.5,0.3-0.7s0.5-0.3,0.8-0.3
				c0.3,0,0.6,0.1,0.8,0.3s0.3,0.4,0.3,0.7c0,0.3-0.1,0.6-0.3,0.8S735.5,1819.1,735.2,1819.1z M734.4,1832.5v-11h1.5v11H734.4z"/>
			<path class="st1" d="M740.1,1832.5V1817h1.5v15.6H740.1z"/>
			<path class="st1" d="M745.8,1836.7c-0.5,0-1-0.1-1.5-0.3c-0.5-0.2-0.9-0.4-1.2-0.8l0.7-1.1c0.3,0.3,0.6,0.5,0.9,0.6
				c0.3,0.1,0.7,0.2,1.1,0.2c0.5,0,0.9-0.1,1.3-0.4c0.4-0.3,0.7-0.8,1-1.4l0.7-1.6l0.2-0.2l4.5-10.2h1.5l-5.5,12.3
				c-0.3,0.7-0.6,1.3-1,1.7c-0.4,0.4-0.8,0.7-1.2,0.9C746.8,1836.6,746.3,1836.7,745.8,1836.7z M748.7,1832.9l-5.1-11.3h1.6
				l4.5,10.1L748.7,1832.9z"/>
		</g>
	</g>
</g>
<g id="Report_1_">
	<g id="Report_icon_1_">
		<path class="st4" d="M932.3,1740.7h11.3c1.1,0,2,0.9,2,2v60.1c0,1.1-0.9,2-2,2h-45.4c-1.1,0-2-0.9-2-2v-60.1c0-1.1,0.9-2,2-2h10.4
			"/>
		<rect x="908.7" y="1734.8" class="st4" width="23.7" height="11.8"/>
		<g>
			<rect x="902.8" y="1784.9" class="st8" width="8.9" height="8.9"/>
			<g>
				<line class="st5" x1="916.1" y1="1785.8" x2="937.8" y2="1785.8"/>
				<line class="st5" x1="916.1" y1="1793.3" x2="937.8" y2="1793.3"/>
				<line class="st5" x1="916.1" y1="1789.6" x2="937.8" y2="1789.6"/>
			</g>
			<g>
				<line class="st5" x1="902.3" y1="1786.5" x2="907.2" y2="1791.4"/>
				<line class="st5" x1="907.2" y1="1791.5" x2="914.1" y2="1784.5"/>
			</g>
		</g>
		<g>
			<rect x="902.8" y="1768.6" class="st8" width="8.9" height="8.9"/>
			<g>
				<line class="st5" x1="916.1" y1="1769.6" x2="937.8" y2="1769.6"/>
				<line class="st5" x1="916.1" y1="1777" x2="937.8" y2="1777"/>
				<line class="st5" x1="916.1" y1="1773.3" x2="937.8" y2="1773.3"/>
			</g>
			<g>
				<line class="st5" x1="902.3" y1="1770.3" x2="907.2" y2="1775.1"/>
				<line class="st5" x1="907.2" y1="1775.2" x2="914.1" y2="1768.2"/>
			</g>
		</g>
		<g>
			<rect x="902.8" y="1752.3" class="st8" width="8.9" height="8.9"/>
			<g>
				<line class="st5" x1="916.1" y1="1753.3" x2="937.8" y2="1753.3"/>
				<line class="st5" x1="916.1" y1="1760.7" x2="937.8" y2="1760.7"/>
				<line class="st5" x1="916.1" y1="1757" x2="937.8" y2="1757"/>
			</g>
			<g>
				<line class="st5" x1="902.3" y1="1754" x2="907.2" y2="1758.9"/>
				<line class="st5" x1="907.2" y1="1758.9" x2="914.1" y2="1752"/>
			</g>
		</g>
	</g>
	<g id="Report_txt_1_">
		<g id="Report_txt_2_">
			<path class="st1" d="M887,1832.5v-14.7h5.5c1.2,0,2.3,0.2,3.2,0.6c0.9,0.4,1.6,1,2.1,1.7c0.5,0.7,0.7,1.7,0.7,2.7
				c0,1-0.2,1.9-0.7,2.7s-1.2,1.3-2.1,1.7c-0.9,0.4-2,0.6-3.2,0.6h-4.6l0.7-0.7v5.4H887z M888.5,1827.3l-0.7-0.7h4.6
				c1.5,0,2.6-0.3,3.3-1c0.8-0.6,1.1-1.5,1.1-2.7c0-1.2-0.4-2.1-1.1-2.7c-0.8-0.6-1.9-1-3.3-1h-4.6l0.7-0.7V1827.3z M897,1832.5
				l-3.8-5.3h1.7l3.8,5.3H897z"/>
			<path class="st1" d="M906.5,1832.7c-1.1,0-2.2-0.2-3-0.7c-0.9-0.5-1.5-1.1-2-2s-0.7-1.8-0.7-2.9c0-1.1,0.2-2.1,0.7-2.9
				c0.5-0.8,1.1-1.5,1.9-2c0.8-0.5,1.7-0.7,2.8-0.7c1,0,2,0.2,2.8,0.7c0.8,0.5,1.4,1.1,1.9,2c0.5,0.8,0.7,1.8,0.7,2.9
				c0,0.1,0,0.1,0,0.2c0,0.1,0,0.2,0,0.2h-9.6v-1.1h8.8l-0.6,0.4c0-0.8-0.2-1.5-0.5-2.1c-0.3-0.6-0.8-1.1-1.4-1.5
				c-0.6-0.3-1.3-0.5-2-0.5c-0.8,0-1.4,0.2-2,0.5c-0.6,0.4-1.1,0.8-1.4,1.5c-0.3,0.6-0.5,1.4-0.5,2.2v0.2c0,0.8,0.2,1.6,0.6,2.2
				c0.4,0.6,0.9,1.1,1.6,1.5c0.7,0.4,1.4,0.5,2.3,0.5c0.7,0,1.3-0.1,1.9-0.4c0.6-0.2,1.1-0.6,1.5-1.1l0.8,1c-0.5,0.6-1.1,1-1.8,1.3
				C908.2,1832.5,907.4,1832.7,906.5,1832.7z"/>
			<path class="st1" d="M914.5,1836.6v-15.1h1.4v3.3l-0.1,2.2l0.2,2.2v7.4H914.5z M920.2,1832.7c-1,0-1.8-0.2-2.6-0.7
				c-0.8-0.4-1.4-1.1-1.8-1.9c-0.5-0.8-0.7-1.9-0.7-3.1c0-1.2,0.2-2.2,0.7-3.1s1.1-1.5,1.8-1.9c0.8-0.4,1.6-0.7,2.6-0.7
				c1,0,2,0.2,2.8,0.7c0.8,0.5,1.5,1.1,2,2c0.5,0.8,0.7,1.8,0.7,2.9c0,1.1-0.2,2.1-0.7,2.9s-1.1,1.5-2,2
				C922.2,1832.4,921.3,1832.7,920.2,1832.7z M920.1,1831.3c0.8,0,1.5-0.2,2.1-0.5c0.6-0.4,1.1-0.9,1.5-1.5c0.4-0.7,0.5-1.4,0.5-2.3
				c0-0.9-0.2-1.6-0.5-2.2c-0.4-0.6-0.9-1.1-1.5-1.5c-0.6-0.4-1.3-0.5-2.1-0.5c-0.8,0-1.5,0.2-2.1,0.5c-0.6,0.4-1.1,0.9-1.5,1.5
				c-0.4,0.6-0.5,1.4-0.5,2.2c0,0.9,0.2,1.6,0.5,2.3c0.4,0.7,0.8,1.2,1.5,1.5C918.6,1831.2,919.3,1831.3,920.1,1831.3z"/>
			<path class="st1" d="M933.3,1832.7c-1.1,0-2-0.2-2.9-0.7c-0.8-0.5-1.5-1.2-2-2c-0.5-0.9-0.7-1.8-0.7-2.9c0-1.1,0.2-2.1,0.7-2.9
				c0.5-0.8,1.2-1.5,2-2c0.8-0.5,1.8-0.7,2.9-0.7c1.1,0,2.1,0.2,2.9,0.7c0.8,0.5,1.5,1.1,2,2c0.5,0.8,0.7,1.8,0.7,2.9
				c0,1.1-0.2,2.1-0.7,2.9c-0.5,0.8-1.2,1.5-2,2C935.3,1832.4,934.3,1832.7,933.3,1832.7z M933.3,1831.3c0.8,0,1.5-0.2,2.1-0.5
				c0.6-0.4,1.1-0.9,1.5-1.5c0.4-0.7,0.5-1.4,0.5-2.3c0-0.9-0.2-1.6-0.5-2.3c-0.4-0.6-0.8-1.1-1.5-1.5c-0.6-0.4-1.3-0.5-2.1-0.5
				c-0.8,0-1.5,0.2-2.1,0.5c-0.6,0.4-1.1,0.9-1.5,1.5c-0.4,0.6-0.5,1.4-0.5,2.3c0,0.9,0.2,1.6,0.5,2.3c0.4,0.7,0.9,1.2,1.5,1.5
				C931.8,1831.2,932.5,1831.3,933.3,1831.3z"/>
			<path class="st1" d="M941.9,1832.5v-11h1.4v3l-0.1-0.5c0.3-0.8,0.8-1.5,1.6-1.9c0.7-0.4,1.6-0.7,2.7-0.7v1.4c-0.1,0-0.1,0-0.2,0
				s-0.1,0-0.2,0c-1.2,0-2.1,0.4-2.7,1.1c-0.7,0.7-1,1.7-1,3v5.6H941.9z"/>
			<path class="st1" d="M948.6,1822.8v-1.2h6.8v1.2H948.6z M953.8,1832.7c-1,0-1.8-0.3-2.4-0.8c-0.6-0.6-0.8-1.4-0.8-2.4v-10.4h1.5
				v10.3c0,0.6,0.2,1.1,0.5,1.5c0.3,0.4,0.8,0.5,1.4,0.5c0.7,0,1.2-0.2,1.6-0.6l0.5,1.1c-0.3,0.3-0.6,0.5-1.1,0.6
				C954.7,1832.6,954.3,1832.7,953.8,1832.7z"/>
		</g>
	</g>
</g>
</svg>
